<?xml version="1.0" standalone="no"?>
<!DOCTYPE svg PUBLIC "-//W3C//DTD SVG 20010904//EN"
 "http://www.w3.org/TR/2001/REC-SVG-20010904/DTD/svg10.dtd">
<svg version="1.0" xmlns="http://www.w3.org/2000/svg"
 width="3485.000000pt" height="3483.000000pt" viewBox="0 0 3485.000000 3483.000000"
 preserveAspectRatio="xMidYMid meet">

<g transform="translate(0.000000,3483.000000) scale(0.100000,-0.100000)"
fill="#000000" stroke="none">
<path d="M17130 34819 c-1347 -22 -2597 -182 -3875 -494 -1808 -441 -3548
-1180 -5130 -2180 -2227 -1406 -4122 -3314 -5517 -5555 -956 -1537 -1680
-3252 -2109 -4999 -84 -341 -209 -930 -209 -982 0 -10 69 -124 153 -256 1653
-2568 2899 -5703 3611 -9088 217 -1032 394 -2177 492 -3185 15 -157 28 -286
29 -287 1 -2 82 -19 181 -38 1599 -319 3170 -927 4693 -1817 1908 -1116 3772
-2715 5477 -4698 279 -325 517 -616 923 -1129 l27 -35 224 -17 c461 -35 712
-44 1290 -44 556 1 779 8 1235 41 1931 137 3870 603 5607 1348 359 154 779
353 782 370 0 5 -69 38 -154 73 -1961 814 -3287 1448 -4520 2158 -1061 612
-2021 1266 -2965 2021 -288 230 -306 246 -750 674 -457 440 -609 577 -822 738
l-82 62 -143 -93 c-714 -466 -1373 -812 -1945 -1023 -73 -27 -135 -54 -137
-61 -3 -7 57 -45 147 -94 1707 -925 3333 -2135 4489 -3341 l179 -187 -73 -68
c-40 -38 -99 -93 -130 -122 l-56 -52 -329 328 c-774 775 -1580 1436 -2560
2096 -2371 1600 -5272 2810 -8128 3391 -427 87 -903 167 -1310 220 -104 14
-208 28 -231 31 l-41 6 -7 462 c-40 2783 -87 3878 -221 5222 -300 2992 -1020
5277 -2236 7100 -85 127 -154 235 -154 242 0 11 28 32 217 166 l67 48 119
-178 c741 -1110 1288 -2305 1688 -3693 403 -1397 645 -2954 765 -4910 12 -195
23 -357 25 -359 2 -2 729 287 1616 642 1602 642 1817 727 2268 899 1560 595
2467 853 3330 945 229 24 733 24 948 0 1065 -121 2057 -551 3820 -1659 547
-343 977 -624 2400 -1565 l1033 -683 82 0 c183 0 807 47 1140 85 1123 130
2135 389 2978 763 1664 739 2719 1941 2905 3312 21 153 24 511 6 650 -64 483
-240 868 -528 1156 -208 208 -469 346 -759 400 -123 23 -447 26 -565 6 -194
-34 -473 -123 -620 -197 l-45 -23 -113 139 c-61 76 -112 142 -112 148 0 5 60
50 133 99 588 396 1213 632 1897 717 175 22 610 31 795 16 885 -70 1754 -386
2574 -933 1357 -907 2418 -2332 2865 -3850 121 -412 203 -866 221 -1228 9
-191 16 -263 25 -254 12 12 108 321 195 624 634 2212 793 4536 469 6845 -475
3378 -1969 6608 -4279 9250 -486 556 -1121 1191 -1681 1681 -2179 1908 -4762
3226 -7499 3828 -844 186 -1697 303 -2585 356 -189 11 -878 31 -1000 28 -41
-1 -266 -5 -500 -9z m-4215 -6484 c44 -9 117 -32 162 -50 323 -130 474 -389
490 -837 18 -517 -145 -829 -501 -963 -300 -113 -691 -85 -942 66 -246 149
-364 427 -364 855 0 86 7 189 15 243 68 419 319 650 765 705 72 9 298 -3 375
-19z m2145 -10 c185 -48 329 -154 395 -289 34 -71 65 -221 48 -237 -5 -4 -53
-25 -108 -47 l-100 -40 -5 112 c-5 91 -10 121 -31 166 -33 69 -91 127 -170
170 -83 44 -148 60 -249 60 -156 0 -264 -43 -356 -143 -56 -61 -109 -154 -137
-242 -25 -78 -36 -155 -47 -324 -24 -361 33 -657 154 -797 169 -197 523 -224
743 -57 58 45 121 137 144 215 19 60 21 87 17 184 -3 63 -3 114 1 114 3 0 51
-11 106 -24 l100 -23 7 -49 c18 -140 -44 -303 -165 -431 -131 -139 -289 -203
-548 -223 -372 -28 -681 75 -850 284 -234 288 -277 782 -99 1136 128 256 382
437 693 496 99 18 369 12 457 -11z m2125 -70 l0 -70 -427 -3 -428 -2 0 -315 0
-315 365 0 366 0 -3 -67 -3 -68 -362 -3 -363 -2 0 -405 0 -405 490 0 490 0 0
-75 0 -75 -725 0 -725 0 0 933 c0 514 3 937 7 940 3 4 302 6 662 5 l656 -3 0
-70z m1231 40 c11 -28 505 -1443 614 -1762 l29 -83 -239 0 -239 0 -73 220 -73
220 -376 0 -377 0 -30 -82 c-16 -46 -52 -145 -78 -220 l-49 -138 -97 0 -97 0
35 98 c482 1330 638 1759 646 1770 8 9 60 12 200 12 l189 0 15 -35z m1201 12
c10 -13 232 -332 493 -709 l475 -684 5 705 5 706 80 0 80 0 3 -937 2 -938
-182 0 -183 1 -480 702 -480 703 -3 -703 -2 -703 -90 0 -90 0 0 933 c0 514 3
937 7 940 3 4 82 7 174 7 164 0 168 -1 186 -23z m2553 -2 c316 -60 523 -200
636 -430 186 -379 132 -883 -124 -1157 -105 -113 -246 -188 -441 -235 -105
-26 -111 -26 -588 -30 l-483 -5 0 935 c0 513 3 937 8 941 4 5 210 6 457 3 358
-4 467 -9 535 -22z m1879 -32 c31 -86 631 -1815 631 -1819 0 -3 -107 -3 -237
-2 l-238 3 -73 218 -74 217 -377 0 -377 0 -17 -47 c-9 -27 -44 -126 -78 -220
l-61 -173 -95 0 c-86 0 -95 2 -91 18 8 29 660 1826 670 1845 8 15 28 17 202
17 l194 0 21 -57z m2051 -18 l0 -75 -275 0 -275 0 0 -865 0 -865 -245 0 -245
0 0 865 0 865 -275 0 -275 0 0 75 0 75 795 0 795 0 0 -75z m905 65 c9 -15 645
-1848 645 -1859 0 -8 -76 -11 -234 -11 l-233 0 -75 218 -75 217 -378 0 -378 0
-76 -217 -76 -218 -99 0 c-89 0 -98 2 -91 18 5 14 655 1807 670 1850 5 15 390
18 400 2z m-7475 -4220 l0 -860 488 -2 487 -3 3 -72 3 -73 -721 0 -720 0 0
935 0 935 230 0 230 0 0 -860z m1448 844 c110 -45 141 -161 61 -228 -35 -30
-116 -56 -174 -56 -61 0 -145 28 -176 59 -29 30 -45 85 -35 125 10 40 53 83
99 99 57 21 178 21 225 1z m942 -279 l0 -195 115 0 116 0 -3 -57 -3 -58 -112
-3 -113 -3 0 -527 c0 -333 4 -541 10 -564 22 -77 117 -78 132 -3 3 18 10 20
63 17 33 -2 61 -5 63 -6 5 -5 -22 -72 -40 -98 -43 -62 -201 -106 -340 -94
-140 12 -234 62 -281 150 -22 41 -22 47 -25 583 l-3 542 -82 3 -82 3 -3 58 -3
57 86 0 85 0 0 120 0 119 43 11 c108 27 209 63 282 99 44 22 83 40 88 40 4 1
7 -87 7 -194z m-840 -865 l0 -710 -210 0 -210 0 0 689 0 688 118 7 c64 4 153
13 197 20 44 8 86 14 93 15 9 1 12 -147 12 -709z m2108 694 c220 -45 377 -191
437 -410 9 -33 19 -118 22 -196 l6 -138 -459 0 -459 0 6 -123 c8 -146 23 -225
55 -289 53 -105 131 -158 258 -178 177 -28 336 41 401 174 24 49 26 63 23 150
-2 80 -1 96 12 96 22 -1 170 -37 176 -43 12 -11 -19 -165 -43 -220 -54 -121
-187 -207 -378 -242 -123 -24 -356 -16 -470 15 -128 34 -220 85 -301 165 -113
112 -165 225 -183 397 -37 370 140 696 439 809 129 49 316 62 458 33z m1194
-121 l3 -137 38 62 c47 76 101 123 196 170 69 34 82 37 160 37 99 -1 147 -20
199 -79 64 -73 67 -162 12 -348 l-21 -68 -154 0 c-117 0 -155 3 -155 13 0 6
12 48 26 92 14 44 27 104 27 133 2 45 -2 57 -22 73 -28 23 -90 25 -129 5 -65
-34 -129 -142 -163 -274 -17 -69 -19 -113 -19 -519 l0 -443 -210 0 -210 0 2
693 3 692 150 7 c83 4 168 12 190 17 80 18 74 26 77 -126z m1786 108 c140 -35
234 -92 280 -170 l27 -46 5 -495 c5 -542 5 -536 65 -565 41 -19 59 -19 119 -1
l47 14 10 -26 c29 -76 29 -77 -63 -98 -60 -14 -121 -19 -223 -19 -120 0 -149
3 -207 23 -74 26 -131 77 -142 129 l-7 28 -62 -60 c-71 -70 -126 -100 -223
-120 -208 -44 -431 9 -549 129 -76 78 -99 142 -99 271 0 125 22 181 98 253 84
79 154 110 408 178 226 60 305 93 357 149 60 65 68 160 19 246 -78 140 -370
162 -510 39 -80 -70 -97 -147 -57 -255 12 -31 19 -58 17 -60 -4 -4 -220 34
-226 40 -2 2 -6 39 -9 83 -5 69 -3 86 16 125 41 85 132 149 271 191 125 39
186 45 380 41 134 -3 194 -8 258 -24z m1568 18 c32 -6 95 -25 139 -42 67 -25
91 -41 146 -96 74 -74 96 -123 106 -231 l6 -66 -100 -37 c-55 -20 -102 -37
-105 -37 -3 0 -8 51 -11 113 -6 131 -18 173 -65 228 -58 67 -101 84 -217 84
-81 0 -109 -4 -147 -22 -178 -82 -261 -318 -245 -698 13 -306 73 -455 209
-516 46 -21 68 -24 163 -24 98 0 116 3 165 26 77 36 121 77 161 151 l34 63 0
146 0 146 80 -25 c118 -36 115 -33 115 -105 -1 -234 -125 -392 -370 -469 -68
-21 -92 -23 -270 -22 -167 0 -206 4 -272 22 -126 35 -185 68 -269 151 -132
131 -189 289 -189 522 0 262 94 465 275 594 98 71 228 124 353 145 71 12 241
11 308 -1z m1138 -511 c111 -268 204 -484 207 -480 4 4 107 224 229 490 l222
482 79 0 c44 0 79 -3 79 -7 0 -5 -180 -387 -401 -850 -446 -937 -443 -932
-563 -993 -66 -33 -74 -35 -175 -35 -95 0 -112 3 -162 28 -41 20 -66 41 -93
79 -20 29 -32 56 -28 60 13 13 143 88 152 88 4 0 15 -20 24 -45 10 -24 31 -56
47 -70 67 -55 187 -17 248 80 43 68 103 215 98 239 -2 11 -142 334 -311 718
-168 383 -306 699 -306 702 0 4 102 5 227 4 l226 -3 201 -487z m326 -1463 c0
-22 -4 -25 -35 -25 -42 0 -44 10 -7 32 36 23 42 22 42 -7z"/>
<path d="M12557 28230 c-92 -24 -176 -90 -215 -171 -67 -138 -86 -317 -79
-751 4 -287 8 -346 25 -426 48 -217 133 -312 305 -342 172 -30 329 42 396 184
58 121 72 226 78 574 8 448 -13 632 -88 773 -59 110 -147 160 -293 165 -50 2
-108 -1 -129 -6z"/>
<path d="M17902 27507 c-89 -248 -162 -455 -162 -459 0 -5 144 -8 320 -8 176
0 320 3 320 8 0 12 -302 896 -309 904 -4 4 -80 -196 -169 -445z"/>
<path d="M21640 27386 l0 -806 158 0 c240 0 356 37 464 147 59 60 94 137 119
258 40 197 42 600 4 790 -33 166 -116 287 -237 348 -93 47 -150 58 -335 64
l-173 6 0 -807z"/>
<path d="M23680 27935 c-17 -42 -320 -886 -320 -891 0 -2 146 -4 324 -4 l325
0 -111 323 c-61 177 -132 385 -158 462 -46 136 -48 139 -60 110z"/>
<path d="M26500 27506 l-166 -461 320 -3 c175 -1 321 -1 323 1 3 3 -305 918
-310 923 -1 1 -76 -206 -167 -460z"/>
<path d="M22947 24396 c-132 -48 -188 -162 -206 -428 l-6 -98 267 0 268 0 0
68 c0 93 -25 247 -51 316 -46 124 -158 182 -272 142z"/>
<path d="M26010 23924 c-25 -17 -103 -57 -175 -88 -148 -65 -190 -99 -229
-185 -48 -108 -44 -286 9 -378 68 -115 248 -108 355 14 18 20 45 62 59 93 25
53 26 63 29 285 2 127 2 244 0 261 l-3 31 -45 -33z"/>
<path d="M27622 17693 c-7 -3 25 -31 75 -66 270 -186 487 -415 640 -674 356
-605 401 -1422 126 -2268 -147 -454 -376 -893 -661 -1269 -282 -372 -700 -758
-1153 -1063 -1112 -749 -2832 -1292 -4632 -1463 -114 -11 -216 -24 -225 -29
-13 -8 22 -29 173 -102 914 -441 1798 -739 2770 -934 1474 -295 3060 -319
4825 -74 309 43 821 129 850 142 49 24 326 375 485 617 419 637 667 1312 747
2035 20 183 17 702 -5 885 -27 213 -52 353 -102 555 -332 1348 -1317 2542
-2678 3245 -351 181 -695 319 -1076 431 -140 41 -138 40 -159 32z"/>
<path d="M4 16961 c3 -69 8 -196 11 -281 14 -373 54 -888 101 -1290 363 -3137
1558 -6075 3494 -8595 459 -597 899 -1096 1484 -1681 404 -403 628 -612 986
-920 1850 -1588 4056 -2788 6386 -3473 254 -75 258 -76 250 -62 -4 5 -2 11 3
13 5 1 -92 120 -216 263 -2797 3228 -5395 5466 -7443 6408 -175 81 -496 214
-622 258 -34 12 -40 20 -64 83 -94 249 -342 886 -489 1256 -1157 2906 -2353
5506 -3341 7266 -266 476 -511 881 -531 881 -12 0 -14 -18 -9 -126z"/>
<path d="M12980 14758 c-279 -19 -666 -85 -1002 -169 -480 -121 -943 -280
-1893 -654 -455 -179 -1028 -400 -1915 -739 -1182 -451 -2320 -905 -2408 -962
-22 -14 -23 -20 -18 -77 4 -34 13 -249 21 -477 19 -520 26 -700 30 -700 2 0
119 33 262 74 1679 482 4344 1469 5793 2146 235 109 290 134 294 129 10 -11
156 -310 156 -320 0 -6 -56 -37 -125 -70 -716 -340 -1790 -781 -2929 -1204
-197 -74 -362 -137 -367 -142 -24 -24 -121 -539 -158 -838 -56 -447 -75 -803
-68 -1260 7 -454 34 -746 97 -1055 37 -179 48 -220 63 -225 7 -2 112 -34 235
-70 123 -36 339 -103 481 -148 172 -56 260 -80 267 -73 7 7 6 38 -2 96 -65
441 -56 1032 27 1800 49 462 80 685 96 697 8 7 102 50 209 97 191 85 359 156
994 419 713 296 1169 513 1648 788 86 49 158 89 161 89 5 0 166 -268 188 -312
6 -12 -388 -231 -712 -393 -374 -189 -617 -297 -1305 -583 -576 -240 -831
-349 -845 -363 -5 -6 -20 -103 -32 -217 -11 -114 -33 -313 -47 -442 -47 -434
-59 -613 -59 -910 0 -380 27 -601 104 -841 l30 -96 237 -88 c130 -48 351 -132
490 -187 169 -66 257 -97 264 -90 6 6 4 36 -6 88 -32 159 -40 272 -40 519 0
314 23 551 90 915 41 224 23 198 176 265 182 80 899 409 1440 659 566 262
1151 525 1159 520 8 -4 153 -334 148 -337 -2 -2 -130 -59 -284 -127 -154 -68
-536 -242 -850 -387 -313 -145 -760 -350 -993 -456 -421 -191 -422 -192 -432
-227 -5 -19 -20 -116 -34 -215 -88 -617 -72 -1025 50 -1285 53 -113 90 -166
127 -181 84 -33 606 -272 796 -365 118 -57 216 -104 218 -104 2 0 2 4 -1 9 -4
5 -2 11 3 13 5 1 -2 46 -15 98 -37 143 -47 263 -41 460 5 166 30 348 70 520
12 53 14 55 72 83 90 44 346 149 465 192 263 95 506 158 760 196 192 29 507
32 685 5 599 -88 1130 -389 1845 -1046 68 -63 262 -249 430 -414 235 -230 354
-338 520 -471 937 -749 1985 -1458 3070 -2078 1287 -734 2680 -1388 4440
-2084 201 -79 372 -145 380 -145 27 -2 544 286 913 509 2798 1692 5086 4162
6551 7073 162 321 278 567 394 830 l59 135 -121 -62 c-771 -393 -1757 -738
-2706 -947 -698 -154 -1390 -249 -2205 -303 -331 -22 -1366 -25 -1695 -5
-1388 84 -2628 313 -3692 683 -226 78 -266 92 -448 146 -196 58 -483 187 -785
353 -468 256 -1005 601 -2160 1386 -746 507 -1021 692 -1330 894 -902 589
-1567 982 -2204 1300 -758 379 -1375 602 -1931 699 -100 17 -157 25 -357 46
-32 3 -41 1 -39 -10 1 -8 79 -93 172 -187 233 -237 377 -411 542 -659 169
-251 341 -574 439 -824 28 -71 76 -193 107 -271 163 -413 391 -870 648 -1299
1174 -1953 3111 -3533 5673 -4630 1769 -757 3790 -1256 5880 -1450 93 -9 171
-18 174 -20 6 -7 -21 -316 -29 -341 l-8 -20 -194 18 c-2477 227 -4771 849
-6718 1823 -1780 890 -3258 2065 -4411 3505 -772 964 -1389 2049 -1853 3255
-39 103 -57 135 -127 225 -246 317 -543 618 -804 816 -126 95 -114 91 -245 82z"/>
<path d="M7985 11285 c-699 -243 -1455 -483 -1970 -626 -104 -28 -196 -58
-204 -64 -11 -11 -11 -123 -2 -696 6 -376 13 -764 14 -861 1 -97 4 -179 7
-182 4 -3 85 -17 180 -31 683 -101 1394 -243 2072 -415 153 -38 285 -67 293
-64 9 4 13 14 11 23 -23 74 -76 477 -97 741 -17 202 -17 845 -1 1075 28 388
82 834 137 1113 29 148 29 142 13 141 -7 0 -211 -70 -453 -154z"/>
<path d="M14390 7889 c-246 -15 -525 -73 -820 -170 -177 -59 -388 -142 -406
-161 -40 -40 -61 -504 -30 -653 29 -138 126 -305 177 -305 24 0 243 82 442
164 351 147 749 349 1090 554 181 108 548 349 559 366 18 28 -252 132 -449
172 -99 20 -383 48 -428 42 -5 0 -66 -4 -135 -9z"/>
</g>
</svg>
